<mxfile host="app.diagrams.net" modified="2021-11-21T09:08:23.628Z" agent="5.0 (Macintosh; Intel Mac OS X 10_15_7) AppleWebKit/605.1.15 (KHTML, like Gecko) Version/14.1.1 Safari/605.1.15" etag="mMU7NV74vbaQKN-VAPeA" version="15.8.3" type="github">
  <diagram id="U8PvrhQ2DvQVXKxI1cUy" name="Page-1">
    <mxGraphModel dx="1773" dy="558" grid="1" gridSize="10" guides="1" tooltips="1" connect="1" arrows="1" fold="1" page="1" pageScale="1" pageWidth="827" pageHeight="1169" math="0" shadow="0">
      <root>
        <mxCell id="0" />
        <mxCell id="1" parent="0" />
        <mxCell id="gesGecQFHgt2dBdHBwdp-2" value="2022届阿里巴巴薪资&amp;nbsp;" style="rounded=0;whiteSpace=wrap;html=1;fontSize=16;fillColor=#cce5ff;strokeColor=#36393d;" vertex="1" parent="1">
          <mxGeometry x="-21.67" y="160" width="611.67" height="54" as="geometry" />
        </mxCell>
        <mxCell id="gesGecQFHgt2dBdHBwdp-3" value="offer 等级" style="rounded=0;whiteSpace=wrap;html=1;fontSize=16;fillColor=#ffff88;strokeColor=#36393d;" vertex="1" parent="1">
          <mxGeometry x="80" y="214" width="101.66666666666667" height="54" as="geometry" />
        </mxCell>
        <mxCell id="gesGecQFHgt2dBdHBwdp-4" value="月薪" style="rounded=0;whiteSpace=wrap;html=1;fontSize=16;fillColor=#ffff88;strokeColor=#36393d;" vertex="1" parent="1">
          <mxGeometry x="181.66666666666669" y="214" width="101.66666666666667" height="54" as="geometry" />
        </mxCell>
        <mxCell id="gesGecQFHgt2dBdHBwdp-5" value="搬家费" style="rounded=0;whiteSpace=wrap;html=1;fontSize=16;fillColor=#ffff88;strokeColor=#36393d;" vertex="1" parent="1">
          <mxGeometry x="283.33333333333337" y="214" width="101.66666666666667" height="54" as="geometry" />
        </mxCell>
        <mxCell id="gesGecQFHgt2dBdHBwdp-6" value="签字费" style="rounded=0;whiteSpace=wrap;html=1;fontSize=16;fillColor=#ffff88;strokeColor=#36393d;" vertex="1" parent="1">
          <mxGeometry x="385" y="214" width="101.66666666666667" height="54" as="geometry" />
        </mxCell>
        <mxCell id="gesGecQFHgt2dBdHBwdp-9" value="白菜" style="rounded=0;whiteSpace=wrap;html=1;fontSize=16;" vertex="1" parent="1">
          <mxGeometry x="80" y="268" width="101.66666666666667" height="54" as="geometry" />
        </mxCell>
        <mxCell id="gesGecQFHgt2dBdHBwdp-10" value="20-23k*16" style="rounded=0;whiteSpace=wrap;html=1;fontSize=16;" vertex="1" parent="1">
          <mxGeometry x="181.66666666666669" y="268" width="101.66666666666667" height="54" as="geometry" />
        </mxCell>
        <mxCell id="gesGecQFHgt2dBdHBwdp-11" value="6k" style="rounded=0;whiteSpace=wrap;html=1;fontSize=16;" vertex="1" parent="1">
          <mxGeometry x="283.33333333333337" y="268" width="101.66666666666667" height="162" as="geometry" />
        </mxCell>
        <mxCell id="gesGecQFHgt2dBdHBwdp-12" value="2-8w不等" style="rounded=0;whiteSpace=wrap;html=1;fontSize=16;" vertex="1" parent="1">
          <mxGeometry x="385" y="268" width="101.66666666666667" height="162" as="geometry" />
        </mxCell>
        <mxCell id="gesGecQFHgt2dBdHBwdp-15" value="sp" style="rounded=0;whiteSpace=wrap;html=1;fontSize=16;" vertex="1" parent="1">
          <mxGeometry x="80" y="322" width="101.66666666666667" height="54" as="geometry" />
        </mxCell>
        <mxCell id="gesGecQFHgt2dBdHBwdp-16" value="24-26k*16" style="rounded=0;whiteSpace=wrap;html=1;fontSize=16;" vertex="1" parent="1">
          <mxGeometry x="181.66666666666669" y="322" width="101.66666666666667" height="54" as="geometry" />
        </mxCell>
        <mxCell id="gesGecQFHgt2dBdHBwdp-17" value="ssp" style="rounded=0;whiteSpace=wrap;html=1;fontSize=16;" vertex="1" parent="1">
          <mxGeometry x="80" y="376" width="101.66666666666667" height="54" as="geometry" />
        </mxCell>
        <mxCell id="gesGecQFHgt2dBdHBwdp-18" value="27-28k*16" style="rounded=0;whiteSpace=wrap;html=1;fontSize=16;" vertex="1" parent="1">
          <mxGeometry x="181.66666666666669" y="376" width="101.66666666666667" height="54" as="geometry" />
        </mxCell>
        <mxCell id="gesGecQFHgt2dBdHBwdp-23" value="岗位" style="rounded=0;whiteSpace=wrap;html=1;fontSize=16;fillColor=#ffff88;strokeColor=#36393d;" vertex="1" parent="1">
          <mxGeometry x="-21.67" y="214" width="101.66666666666667" height="54" as="geometry" />
        </mxCell>
        <mxCell id="gesGecQFHgt2dBdHBwdp-24" value="开发岗" style="rounded=0;whiteSpace=wrap;html=1;fontSize=16;" vertex="1" parent="1">
          <mxGeometry x="-21.67" y="268" width="101.67" height="162" as="geometry" />
        </mxCell>
        <mxCell id="gesGecQFHgt2dBdHBwdp-26" value="白菜" style="rounded=0;whiteSpace=wrap;html=1;fontSize=16;" vertex="1" parent="1">
          <mxGeometry x="80" y="430" width="101.66666666666667" height="54" as="geometry" />
        </mxCell>
        <mxCell id="gesGecQFHgt2dBdHBwdp-27" value="sp" style="rounded=0;whiteSpace=wrap;html=1;fontSize=16;" vertex="1" parent="1">
          <mxGeometry x="80" y="484" width="101.66666666666667" height="54" as="geometry" />
        </mxCell>
        <mxCell id="gesGecQFHgt2dBdHBwdp-28" value="ssp" style="rounded=0;whiteSpace=wrap;html=1;fontSize=16;" vertex="1" parent="1">
          <mxGeometry x="80" y="538" width="101.66666666666667" height="54" as="geometry" />
        </mxCell>
        <mxCell id="gesGecQFHgt2dBdHBwdp-29" value="25k*16" style="rounded=0;whiteSpace=wrap;html=1;fontSize=16;" vertex="1" parent="1">
          <mxGeometry x="181.66666666666669" y="430" width="101.66666666666667" height="54" as="geometry" />
        </mxCell>
        <mxCell id="gesGecQFHgt2dBdHBwdp-30" value="29-31k*16" style="rounded=0;whiteSpace=wrap;html=1;fontSize=16;" vertex="1" parent="1">
          <mxGeometry x="181.66666666666669" y="484" width="101.66666666666667" height="54" as="geometry" />
        </mxCell>
        <mxCell id="gesGecQFHgt2dBdHBwdp-31" value="32-36k*16" style="rounded=0;whiteSpace=wrap;html=1;fontSize=16;" vertex="1" parent="1">
          <mxGeometry x="181.66666666666669" y="538" width="101.66666666666667" height="54" as="geometry" />
        </mxCell>
        <mxCell id="gesGecQFHgt2dBdHBwdp-32" value="6k" style="rounded=0;whiteSpace=wrap;html=1;fontSize=16;" vertex="1" parent="1">
          <mxGeometry x="283.33333333333337" y="430" width="101.66666666666667" height="162" as="geometry" />
        </mxCell>
        <mxCell id="gesGecQFHgt2dBdHBwdp-34" value="杭州人才补贴" style="rounded=0;whiteSpace=wrap;html=1;fontSize=16;fillColor=#ffff88;strokeColor=#36393d;" vertex="1" parent="1">
          <mxGeometry x="486.67" y="214" width="103.33" height="54" as="geometry" />
        </mxCell>
        <mxCell id="gesGecQFHgt2dBdHBwdp-35" value="根据学历不同 1-10w不等" style="rounded=0;whiteSpace=wrap;html=1;fontSize=16;" vertex="1" parent="1">
          <mxGeometry x="486.67" y="268" width="103.33" height="162" as="geometry" />
        </mxCell>
        <mxCell id="gesGecQFHgt2dBdHBwdp-38" value="2-8w不等" style="rounded=0;whiteSpace=wrap;html=1;fontSize=16;" vertex="1" parent="1">
          <mxGeometry x="385" y="430" width="101.66666666666667" height="162" as="geometry" />
        </mxCell>
        <mxCell id="gesGecQFHgt2dBdHBwdp-39" value="根据学历不同 1-10w不等" style="rounded=0;whiteSpace=wrap;html=1;fontSize=16;" vertex="1" parent="1">
          <mxGeometry x="486.67" y="430" width="103.33" height="162" as="geometry" />
        </mxCell>
        <mxCell id="gesGecQFHgt2dBdHBwdp-40" value="算法岗" style="rounded=0;whiteSpace=wrap;html=1;fontSize=16;" vertex="1" parent="1">
          <mxGeometry x="-21.67" y="430" width="101.67" height="162" as="geometry" />
        </mxCell>
      </root>
    </mxGraphModel>
  </diagram>
</mxfile>
